{
  "accessors": [
    {
      "bufferView": 2,
      "componentType": 5126,
      "count": 65532,
      "max": [
        4.0730299949646,
        1.6150239706039429,
        1.4998019933700562
      ],
      "min": [
        3.0176970958709717,
        0.9994410276412964,
        0.018350999802350998
      ],
      "type": "VEC3"
    },
    {
      "bufferView": 2,
      "byteOffset": 786384,
      "componentType": 5126,
      "count": 65532,
      "max": [
        0.9999935626983643,
        0.9999829530715942,
        0.9996923804283142
      ],
      "min": [
        -0.9999995231628418,
        -0.9999978542327881,
        -0.9935375452041626
      ],
      "type": "VEC3"
    },
    {
      "bufferView": 1,
      "componentType": 5126,
      "count": 65532,
      "max": [
        0.9745910167694092,
        0.8145319819450378
      ],
      "min": [
        0.0006779999821446836,
        0.01218200009316206
      ],
      "type": "VEC2"
    },
    {
      "bufferView": 0,
      "componentType": 5125,
      "count": 316062,
      "type": "SCALAR"
    },
    {
      "bufferView": 2,
      "byteOffset": 1572768,
      "componentType": 5126,
      "count": 65532,
      "max": [
        4.0730299949646,
        1.623795986175537,
        1.499235987663269
      ],
      "min": [
        3.0162479877471924,
        0.9905949831008911,
        0.0013830000534653664
      ],
      "type": "VEC3"
    },
    {
      "bufferView": 2,
      "byteOffset": 2359152,
      "componentType": 5126,
      "count": 65532,
      "max": [
        0.9999858140945435,
        0.9999891519546509,
        0.999998927116394
      ],
      "min": [
        -0.9999971389770508,
        -1.0,
        -0.9999368190765381
      ],
      "type": "VEC3"
    },
    {
      "bufferView": 1,
      "byteOffset": 524256,
      "componentType": 5126,
      "count": 65532,
      "max": [
        0.9989320039749146,
        0.9993289709091187
      ],
      "min": [
        0.0006140000186860561,
        0.0006430000066757202
      ],
      "type": "VEC2"
    },
    {
      "bufferView": 0,
      "byteOffset": 1264248,
      "componentType": 5125,
      "count": 252660,
      "type": "SCALAR"
    },
    {
      "bufferView": 2,
      "byteOffset": 3145536,
      "componentType": 5126,
      "count": 11144,
      "max": [
        4.072903156280518,
        1.6035159826278687,
        1.500012993812561
      ],
      "min": [
        3.0159919261932373,
        0.9954119920730591,
        0.026235999539494514
      ],
      "type": "VEC3"
    },
    {
      "bufferView": 2,
      "byteOffset": 3279264,
      "componentType": 5126,
      "count": 11144,
      "max": [
        0.9999451637268066,
        0.9999926090240479,
        0.9990521669387817
      ],
      "min": [
        -0.9998997449874878,
        -0.999967098236084,
        -0.9992811679840088
      ],
      "type": "VEC3"
    },
    {
      "bufferView": 1,
      "byteOffset": 1048512,
      "componentType": 5126,
      "count": 11144,
      "max": [
        0.8174620270729065,
        0.9910910129547119
      ],
      "min": [
        0.0007009999826550484,
        0.015549999661743641
      ],
      "type": "VEC2"
    },
    {
      "bufferView": 0,
      "byteOffset": 2274888,
      "componentType": 5125,
      "count": 24114,
      "type": "SCALAR"
    },
    {
      "bufferView": 2,
      "byteOffset": 3412992,
      "componentType": 5126,
      "count": 65533,
      "max": [
        4.064167022705078,
        1.6102319955825806,
        1.4569720029830933
      ],
      "min": [
        3.015652894973755,
        0.9875710010528564,
        0.021111000329256058
      ],
      "type": "VEC3"
    },
    {
      "bufferView": 2,
      "byteOffset": 4199388,
      "componentType": 5126,
      "count": 65533,
      "max": [
        0.9999934434890747,
        0.993078351020813,
        0.9994644522666931
      ],
      "min": [
        -0.9999942779541016,
        -0.9999929666519165,
        -0.9997400641441345
      ],
      "type": "VEC3"
    },
    {
      "bufferView": 1,
      "byteOffset": 1137664,
      "componentType": 5126,
      "count": 65533,
      "max": [
        1.9795780181884766,
        0.8915759921073914
      ],
      "min": [
        1.137071967124939,
        0.0010029999539256096
      ],
      "type": "VEC2"
    },
    {
      "bufferView": 0,
      "byteOffset": 2371344,
      "componentType": 5125,
      "count": 304632,
      "type": "SCALAR"
    },
    {
      "bufferView": 2,
      "byteOffset": 4985784,
      "componentType": 5126,
      "count": 65532,
      "max": [
        4.061306953430176,
        1.618878960609436,
        1.500012993812561
      ],
      "min": [
        3.0152409076690674,
        0.9931150078773499,
        0.018990999087691307
      ],
      "type": "VEC3"
    },
    {
      "bufferView": 2,
      "byteOffset": 5772168,
      "componentType": 5126,
      "count": 65532,
      "max": [
        0.9999982118606567,
        0.9999963045120239,
        0.9999867677688599
      ],
      "min": [
        -0.9999947547912598,
        -1.0,
        -0.9968521595001221
      ],
      "type": "VEC3"
    },
    {
      "bufferView": 1,
      "byteOffset": 1661928,
      "componentType": 5126,
      "count": 65532,
      "max": [
        1.9979850053787231,
        0.9993330240249634
      ],
      "min": [
        1.0006259679794312,
        0.0009929999941959977
      ],
      "type": "VEC2"
    },
    {
      "bufferView": 0,
      "byteOffset": 3589872,
      "componentType": 5125,
      "count": 306750,
      "type": "SCALAR"
    },
    {
      "bufferView": 2,
      "byteOffset": 6558552,
      "componentType": 5126,
      "count": 42749,
      "max": [
        4.067540168762207,
        1.6106209754943848,
        1.497262954711914
      ],
      "min": [
        3.0149691104888916,
        0.9894019961357117,
        0.0010290000354871154
      ],
      "type": "VEC3"
    },
    {
      "bufferView": 2,
      "byteOffset": 7071540,
      "componentType": 5126,
      "count": 42749,
      "max": [
        0.9999971389770508,
        0.9999891519546509,
        0.9998647570610046
      ],
      "min": [
        -0.9999808073043823,
        -0.9999884366989136,
        -0.9995225071907043
      ],
      "type": "VEC3"
    },
    {
      "bufferView": 1,
      "byteOffset": 2186184,
      "componentType": 5126,
      "count": 42749,
      "max": [
        1.9993209838867188,
        0.9916999936103821
      ],
      "min": [
        0.1878969967365265,
        0.0012150000547990203
      ],
      "type": "VEC2"
    },
    {
      "bufferView": 0,
      "byteOffset": 4816872,
      "componentType": 5125,
      "count": 167922,
      "type": "SCALAR"
    },
    {
      "bufferView": 2,
      "byteOffset": 7584528,
      "componentType": 5126,
      "count": 4,
      "max": [
        4.016843795776367,
        1.2712299823760986,
        0.5643900036811829
      ],
      "min": [
        3.9352989196777344,
        1.1492589712142944,
        0.4466019868850708
      ],
      "type": "VEC3"
    },
    {
      "bufferView": 1,
      "byteOffset": 2528176,
      "componentType": 5126,
      "count": 4,
      "max": [
        0.0,
        0.0
      ],
      "min": [
        0.0,
        0.0
      ],
      "type": "VEC2"
    },
    {
      "bufferView": 0,
      "byteOffset": 5488560,
      "componentType": 5125,
      "count": 4,
      "type": "SCALAR"
    },
    {
      "bufferView": 2,
      "byteOffset": 7584576,
      "componentType": 5126,
      "count": 65532,
      "max": [
        4.072439193725586,
        1.6227480173110962,
        1.4977469444274902
      ],
      "min": [
        3.019292116165161,
        0.9875710010528564,
        0.0009089999948628247
      ],
      "type": "VEC3"
    },
    {
      "bufferView": 2,
      "byteOffset": 8370960,
      "componentType": 5126,
      "count": 65532,
      "max": [
        0.9999982118606567,
        0.9997376799583435,
        0.9999998807907104
      ],
      "min": [
        -0.9999880790710449,
        -0.9999967813491821,
        -0.9998217225074768
      ],
      "type": "VEC3"
    },
    {
      "bufferView": 1,
      "byteOffset": 2528208,
      "componentType": 5126,
      "count": 65532,
      "max": [
        2.702569007873535,
        0.9959059953689575
      ],
      "min": [
        0.2450210005044937,
        0.0008730000117793679
      ],
      "type": "VEC2"
    },
    {
      "bufferView": 0,
      "byteOffset": 5488576,
      "componentType": 5125,
      "count": 283059,
      "type": "SCALAR"
    },
    {
      "bufferView": 2,
      "byteOffset": 9157344,
      "componentType": 5126,
      "count": 47485,
      "max": [
        4.071775913238525,
        1.6227469444274902,
        1.4967119693756104
      ],
      "min": [
        3.0205299854278564,
        0.9897890090942383,
        0.0019839999731630087
      ],
      "type": "VEC3"
    },
    {
      "bufferView": 2,
      "byteOffset": 9727164,
      "componentType": 5126,
      "count": 47485,
      "max": [
        0.9999967813491821,
        0.9999963045120239,
        0.999893069267273
      ],
      "min": [
        -0.999946117401123,
        -0.9999728202819824,
        -0.9999265670776367
      ],
      "type": "VEC3"
    },
    {
      "bufferView": 1,
      "byteOffset": 3052464,
      "componentType": 5126,
      "count": 47485,
      "max": [
        2.698333978652954,
        0.9993810057640076
      ],
      "min": [
        0.25462400913238525,
        0.000623999978415668
      ],
      "type": "VEC2"
    },
    {
      "bufferView": 0,
      "byteOffset": 6620812,
      "componentType": 5125,
      "count": 188955,
      "type": "SCALAR"
    }
  ],
  "asset": {
    "extras": {
      "author": "Gustaw Mackay (https://sketchfab.com/northernpike)",
      "license": "CC-BY-4.0 (http://creativecommons.org/licenses/by/4.0/)",
      "source": "https://sketchfab.com/3d-models/the-beauty-of-palmyra-200-250-ad-1c1d6311981542289de7a6cc49bcab57",
      "title": "The Beauty of Palmyra (200-250 AD)"
    },
    "generator": "Sketchfab-12.64.0",
    "version": "2.0"
  },
  "bufferViews": [
    {
      "buffer": 0,
      "byteLength": 7376632,
      "name": "floatBufferViews",
      "target": 34963
    },
    {
      "buffer": 0,
      "byteLength": 3432344,
      "byteOffset": 7376632,
      "byteStride": 8,
      "name": "floatBufferViews",
      "target": 34962
    },
    {
      "buffer": 0,
      "byteLength": 10296984,
      "byteOffset": 10808976,
      "byteStride": 12,
      "name": "floatBufferViews",
      "target": 34962
    }
  ],
  "buffers": [
    {
      "byteLength": 21105960,
      "uri": "scene.bin"
    }
  ],
  "images": [
    {
      "uri": "textures/TextureAtlas_1001_baseColor.png"
    },
    {
      "uri": "textures/TextureAtlas_1002_baseColor.png"
    },
    {
      "uri": "textures/TextureAtlas_1003_baseColor.png"
    }
  ],
  "materials": [
    {
      "doubleSided": true,
      "name": "TextureAtlas_1001",
      "pbrMetallicRoughness": {
        "baseColorTexture": {
          "index": 0
        },
        "metallicFactor": 0.0,
        "roughnessFactor": 0.6
      }
    },
    {
      "doubleSided": true,
      "name": "TextureAtlas_1002",
      "pbrMetallicRoughness": {
        "baseColorTexture": {
          "index": 1
        },
        "metallicFactor": 0.0,
        "roughnessFactor": 0.6
      }
    },
    {
      "doubleSided": true,
      "name": "TextureAtlas_1003",
      "pbrMetallicRoughness": {
        "baseColorTexture": {
          "index": 2
        },
        "metallicFactor": 0.0,
        "roughnessFactor": 0.6
      }
    }
  ],
  "meshes": [
    {
      "name": "Object_0",
      "primitives": [
        {
          "attributes": {
            "NORMAL": 1,
            "POSITION": 0,
            "TEXCOORD_0": 2
          },
          "indices": 3,
          "material": 0,
          "mode": 4
        }
      ]
    },
    {
      "name": "Object_1",
      "primitives": [
        {
          "attributes": {
            "NORMAL": 5,
            "POSITION": 4,
            "TEXCOORD_0": 6
          },
          "indices": 7,
          "material": 0,
          "mode": 4
        }
      ]
    },
    {
      "name": "Object_2",
      "primitives": [
        {
          "attributes": {
            "NORMAL": 9,
            "POSITION": 8,
            "TEXCOORD_0": 10
          },
          "indices": 11,
          "material": 0,
          "mode": 4
        }
      ]
    },
    {
      "name": "Object_3",
      "primitives": [
        {
          "attributes": {
            "NORMAL": 13,
            "POSITION": 12,
            "TEXCOORD_0": 14
          },
          "indices": 15,
          "material": 1,
          "mode": 4
        }
      ]
    },
    {
      "name": "Object_4",
      "primitives": [
        {
          "attributes": {
            "NORMAL": 17,
            "POSITION": 16,
            "TEXCOORD_0": 18
          },
          "indices": 19,
          "material": 1,
          "mode": 4
        }
      ]
    },
    {
      "name": "Object_5",
      "primitives": [
        {
          "attributes": {
            "NORMAL": 21,
            "POSITION": 20,
            "TEXCOORD_0": 22
          },
          "indices": 23,
          "material": 1,
          "mode": 4
        }
      ]
    },
    {
      "name": "Object_6",
      "primitives": [
        {
          "attributes": {
            "POSITION": 24,
            "TEXCOORD_0": 25
          },
          "indices": 26,
          "material": 2,
          "mode": 1
        }
      ]
    },
    {
      "name": "Object_7",
      "primitives": [
        {
          "attributes": {
            "NORMAL": 28,
            "POSITION": 27,
            "TEXCOORD_0": 29
          },
          "indices": 30,
          "material": 2,
          "mode": 4
        }
      ]
    },
    {
      "name": "Object_8",
      "primitives": [
        {
          "attributes": {
            "NORMAL": 32,
            "POSITION": 31,
            "TEXCOORD_0": 33
          },
          "indices": 34,
          "material": 2,
          "mode": 4
        }
      ]
    }
  ],
  "nodes": [
    {
      "children": [
        1
      ],
      "matrix": [
        0.555095374584198,
        0.0,
        0.0,
        0.0,
        0.0,
        1.232559331452605e-16,
        -0.555095374584198,
        0.0,
        0.0,
        0.555095374584198,
        1.232559331452605e-16,
        0.0,
        0.0,
        0.0,
        0.0,
        1.0
      ],
      "name": "Sketchfab_model"
    },
    {
      "children": [
        2,
        3,
        4,
        5,
        6,
        7,
        8,
        9,
        10
      ],
      "name": "BeautyOfPalmyra.obj.cleaner.materialmerger.gles"
    },
    {
      "mesh": 0,
      "name": "Object_2"
    },
    {
      "mesh": 1,
      "name": "Object_3"
    },
    {
      "mesh": 2,
      "name": "Object_4"
    },
    {
      "mesh": 3,
      "name": "Object_5"
    },
    {
      "mesh": 4,
      "name": "Object_6"
    },
    {
      "mesh": 5,
      "name": "Object_7"
    },
    {
      "mesh": 6,
      "name": "Object_8"
    },
    {
      "mesh": 7,
      "name": "Object_9"
    },
    {
      "mesh": 8,
      "name": "Object_10"
    }
  ],
  "samplers": [
    {
      "magFilter": 9729,
      "minFilter": 9987,
      "wrapS": 10497,
      "wrapT": 10497
    }
  ],
  "scene": 0,
  "scenes": [
    {
      "name": "Sketchfab_Scene",
      "nodes": [
        0
      ]
    }
  ],
  "textures": [
    {
      "sampler": 0,
      "source": 0
    },
    {
      "sampler": 0,
      "source": 1
    },
    {
      "sampler": 0,
      "source": 2
    }
  ]
}
